<?xml version="1.0" encoding="UTF-8" standalone="no"?>
<svg
   height="48"
   viewBox="0 96 960 960"
   width="48"
   version="1.1"
   xmlns="http://www.w3.org/2000/svg"
   xmlns:svg="http://www.w3.org/2000/svg">
  <path fill="currentColor" d="m 811.1458,420 -171,-168 100,-100 q 17,-17 42.311,-17 25.311,0 42.689,18 l 84,85 q 17,18 17,42.472 0,24.472 -18,41.528 z"/>
  <path fill="currentColor" d="m 562.07886,592.24249 42.85156,42.03126 206.20239,-214.28937 -41.99219,-41.99219 z"/>
  <path fill="currentColor" d="M 370.42969 521.74219 L 338.16406 554.00781 L 338.16406 724.00781 L 508.16406 724.00781 L 542.07031 689.98438 L 499.21875 647.95312 L 483.16406 664.00781 L 398.16406 664.00781 L 398.16406 577.99219 L 412.89062 563.34375 L 370.42969 521.74219 z " />
  <path fill="currentColor" d="m 431.88024,460.98753 42.46093,41.60156 208.82289,-208.58128 -43.00781,-41.99219 z"/>
  <path fill="currentColor" d="M 458.1458,604 Z" />
  <path fill="currentColor" d="m 758.03325,788.07957 60.07323,60.36662 0.0576,-352.44619 -60,60 z" />
  <path fill="currentColor" d="M 114.60938 265.57031 C 104.55547 276.86425 98.164062 289.36257 98.164062 304.00781 L 98.164062 904.00781 C 98.164062 920.0078 104.13283 934.00001 116.13281 946 C 128.1328 957.99999 142.16408 964.00781 158.16406 964.00781 L 758.16406 964.00781 C 774.16405 964.00781 788.15626 957.99999 800.15625 946 C 801.88862 944.26763 801.29116 941.76105 802.77344 939.94531 L 758.16406 896.23438 L 758.16406 904.00781 L 158.16406 904.00781 L 158.16406 308.22656 L 114.60938 265.57031 z " />
  <path fill="currentColor" d="m 275.8347,303.24612 227.32936,0.76169 60,-60 -346.65703,0.0784 z" />
  <path style="fill:none;stroke:currentColor;stroke-width:60;"
     d="M 56.647649,207.05603 852.88328,1006.2402"/>
</svg>
