<?xml version="1.0" encoding="UTF-8" standalone="no"?>
<svg
   height="48"
   viewBox="0 96 960 960"
   width="48"
   version="1.1"
   xmlns="http://www.w3.org/2000/svg"
   xmlns:svg="http://www.w3.org/2000/svg">
  <path fill="currentColor" d="m 158.51146,965.58166 q -24,0 -42,-18 -18.000003,-18 -18.000003,-42 v -600 q 0,-24 18.000003,-42 18,-18 42,-18 h 405 l -60,60 h -345 v 600 h 600 v -348 l 60,-60 v 408 q 0,24 -18,42 -18,18 -42,18 z m 300,-360 z m 182,-352 43,42 -285,284 v 86 h 85 l 286,-286 42,42 -303,304 h -170 v -170 z m 171,168 -171,-168 100,-100 q 17,-17 42.311,-17 25.311,0 42.689,18 l 84,85 q 17,18 17,42.472 0,24.472 -18,41.528 z"/>
</svg>
