<?xml version="1.0" encoding="UTF-8"?>
<svg version="1.1" viewBox="0 0 260 50" xmlns="http://www.w3.org/2000/svg">
 <g transform="translate(-99.381 -204.56)">
  <g fill="#ccc">
   <path d="m217.62 229.38v13.557h-6.4616v-2.2065-8.1302c-2e-5 -1.948-0.0419-3.2865-0.12564-4.0154-0.0718-0.72884-0.20345-1.2656-0.39488-1.6101-0.25131-0.46382-0.59233-0.82162-1.0231-1.0734-0.43079-0.26502-0.92139-0.39754-1.4718-0.39757-1.3402 3e-5 -2.3932 0.57649-3.159 1.7294-0.76583 1.1397-1.1487 2.7233-1.1487 4.7509v10.953h-6.4257c-5.4557-18.695 6.4057-40.603 6.4257-19.003 0.96923-1.2987 1.9983-2.2528 3.0872-2.8624 1.0889-0.62282 2.2914-0.93424 3.6077-0.93426 2.3214 2e-5 4.0804 0.78852 5.277 2.3655 1.2085 1.577 1.8128 3.8696 1.8128 6.8778"/>
   <path d="m244.85 224.9c-3.7257 6.1044-0.90369 16.197 4.0331 18.054l-11.202 8.4e-4v-4.3993-8.4317c-3e-5 -2.0203-0.0466-3.4084-0.13984-4.1643-0.0799-0.7559-0.22641-1.3125-0.43947-1.6698-0.27968-0.48102-0.65922-0.8521-1.1386-1.1132-0.47943-0.27484-1.0254-0.41228-1.638-0.4123-1.4916 2e-5 -2.6635 0.59788-3.5158 1.7936-0.85231 1.182-1.2785 2.8243-1.2785 4.9271v13.47h-7.1514c-6.0719-19.389 7.0706-43.549 7.1514-21.819 1.0787-1.3468 2.224-2.3364 3.4359-2.9686 1.2119-0.64592 2.5502-0.9689 4.0152-0.96892 2.5835 2e-5 4.5412 0.81777 5.8729 2.4532 0.79712 0.85801 1.8806 2.7409 2.0176 4.4706"/>
   <path d="m256.04 225.04c-1.3723 2e-5 -2.4216 0.55687-3.1481 1.6706-0.71496 1.1008-1.0724 2.6936-1.0724 4.7785 0 2.085 0.35748 3.6843 1.0724 4.798 0.72647 1.1008 1.7758 1.6511 3.1481 1.6511 1.3492 0 2.3812-0.55036 3.0962-1.6511 0.71494-1.1137 1.0724-2.713 1.0724-4.798-1e-5 -2.0849-0.35749-3.6778-1.0724-4.7785-0.71497-1.1137-1.747-1.6705-3.0962-1.6706m0-4.9728c3.3326 2e-5 5.933 1.0101 7.8011 3.0303 1.8796 2.0202 2.8194 4.8174 2.8195 8.3916-2e-5 3.5742-0.93984 6.3714-2.8195 8.3916-1.8681 2.0202-4.4685 3.0303-7.8011 3.0303-3.3442-1e-5 -5.9618-1.0101-7.853-3.0303-1.8796-2.0202-2.8195-4.8174-2.8195-8.3916 0-3.5742 0.93982-6.3714 2.8195-8.3916 1.8912-2.0202 4.5088-3.0303 7.853-3.0303"/>
   <path d="m274.57 239.18v11.385c-14.984 2.8129-5.8802-24.53 2.7842-29.547 1.0186-0.60665 2.19-0.90999 3.5142-0.91001 2.3428 2e-5 4.2669 1.0649 5.7722 3.1947 1.5053 2.1169 2.2579 4.847 2.2579 8.1902-2e-5 3.3432-0.75267 6.0797-2.2579 8.2095-1.5053 2.1169-3.4294 3.1754-5.7722 3.1754-1.3242-1e-5 -2.4956-0.29689-3.5142-0.89066-1.0186-0.60668-1.9467-1.5425-2.7842-2.8075m4.0405-14.038c-1.3016 2e-5 -2.3032 0.54861-3.0049 1.6458-0.6904 1.0843-1.0356 2.6526-1.0356 4.705-1e-5 2.0524 0.34519 3.6272 1.0356 4.7244 0.70171 1.0843 1.7034 1.6264 3.0049 1.6264 1.3016 0 2.2919-0.54213 2.971-1.6264 0.69038-1.0843 1.0356-2.6591 1.0356-4.7244-2e-5 -2.0653-0.34521-3.6401-1.0356-4.7244-0.6791-1.0843-1.6694-1.6264-2.971-1.6264"/>
   <path d="m346.5 225.9c-1.7969 1e-5 -3.2278 0.53761-4.2044 1.7008-0.96355 1.1501-1.4453 2.8034-1.4453 4.9599v10.116c-16.799 2.8419-4.274-17.8 3.0859-21.486 1.7816-0.81002 3.2834-1.047 4.9609-0.96057 2.7576-0.0258 2.2202 3.4426 1.4761 5.7212"/>
   <path d="m317.63 222.69c1.8056-1.43 5.0427-2.7803 8.1475-2.5892 3.6564 0.22505 5.3872 2.1725 6.3336 4.2795 1.0251 2.9376 0.94027 6.0681-0.74751 8.1136-3.2468 3.4727-6.5354 3.639-11.171 2.5383 0 0 1.979 2.5074 4.9384 5.6908-4.8876 4.8689-10.733 0.47524-11.814-4.5179-0.86077-3.9755-0.0243-10.079 4.3136-13.515zm5.1614 2.2855c-1.5416 0.0293-2.2325 0.51822-2.9359 1.2276-0.65794 0.81266-0.71006 1.8117-0.7481 2.8737-0.0504 1.4057 0.40944 2.3679 0.90296 2.8695 0.79355 0.70614 1.8458 0.85149 2.9218 0.84938 1.0354-2e-3 1.8817-0.26332 2.5292-0.91308 0.31164-0.36144 0.98811-1.0882 0.96594-2.8626-2e-3 -1.4668-0.33341-2.3026-0.90913-2.9446-0.91759-0.84199-1.6404-1.0636-2.5563-1.0889"/>
   <path d="m149.89 225.93c-2.0469 1e-5 -3.2278 0.5405-4.2044 1.71-0.96355 1.1563-1.4453 2.8186-1.4453 4.9867v10.17c-16.799 2.8573-4.274-17.896 3.0859-21.602 1.7816-0.81441 3.2834-1.0526 4.9609-0.96577 2.7576-0.026 2.2202 3.4612 1.4761 5.7521"/>
   <path d="m126.86 215.95c-3.5305-3.949-9.1166-4.2011-12.908-1.6164-2.7281 1.907-4.6712 4.8464-5.8294 8.8184-1.1582 3.972-1.1088 7.5273 0.14795 10.666 3.3156 6.8117 9.0425 7.113 15.514 5.8865 0 0-2.0937 4.5225-3.6224 7.6414 7.7704 7.6452 12.589 1.0034 13.302-7.1882 0.71389-8.1916-1.7328-19.477-6.6046-24.207zm-2.9048 3.8132c1.7248 0.52587 2.862 1.5823 3.4117 3.1694 0.53922 1.5672 0.45333 3.5699-0.2577 6.0083-0.71101 2.4384-1.714 4.1699-3.009 5.1945-1.3055 1.0047-2.8206 1.2441-4.5453 0.71827-1.7247-0.52586-2.8492-1.5701-3.3734-3.1327-0.53921-1.5671-0.45106-3.5776 0.2644-6.0313 0.71553-2.4537 1.7185-4.1852 3.009-5.1945 1.2755-1.0138 2.7756-1.2578 4.5003-0.73199"/>
   <path d="m296.79 239.25v11.385c-14.984 2.8129-5.8802-24.53 2.7842-29.547 1.0186-0.60665 2.19-0.90999 3.5142-0.91001 2.3428 2e-5 4.2669 1.0649 5.7722 3.1947 1.5053 2.1169 2.2579 4.847 2.2579 8.1902-2e-5 3.3432-0.75267 6.0797-2.2579 8.2095-1.5053 2.1169-3.4294 3.1754-5.7722 3.1754-1.3242-1e-5 -2.4956-0.29689-3.5142-0.89066-1.0186-0.60668-1.9467-1.5425-2.7842-2.8075m4.0405-14.038c-1.3016 2e-5 -2.3032 0.54861-3.0049 1.6458-0.6904 1.0843-1.0356 2.6526-1.0356 4.705-1e-5 2.0524 0.34519 3.6272 1.0356 4.7244 0.70171 1.0843 1.7034 1.6264 3.0049 1.6264 1.3016 0 2.2919-0.54213 2.971-1.6264 0.69038-1.0843 1.0356-2.6591 1.0356-4.7244-2e-5 -2.0653-0.34521-3.6401-1.0356-4.7244-0.6791-1.0843-1.6694-1.6264-2.971-1.6264"/>
   <path d="m179.62 239.3v11.385c-14.984 2.8129-5.8802-24.53 2.7842-29.547 1.0186-0.60665 2.19-0.90999 3.5142-0.91001 2.3428 2e-5 4.2669 1.0649 5.7722 3.1947 1.5053 2.1169 2.2579 4.847 2.2579 8.1902-2e-5 3.3432-0.75267 6.0797-2.2579 8.2095-1.5053 2.1169-3.4294 3.1754-5.7722 3.1754-1.3242-1e-5 -2.4956-0.29689-3.5142-0.89066-1.0186-0.60668-1.9467-1.5425-2.7842-2.8075m4.0405-14.038c-1.3016 2e-5 -2.3032 0.54861-3.0049 1.6458-0.6904 1.0843-1.0356 2.6526-1.0356 4.705-1e-5 2.0524 0.34519 3.6272 1.0356 4.7244 0.70171 1.0843 1.7034 1.6264 3.0049 1.6264 1.3016 0 2.2919-0.54213 2.971-1.6264 0.69038-1.0843 1.0356-2.6591 1.0356-4.7244-2e-5 -2.0653-0.34521-3.6401-1.0356-4.7244-0.6791-1.0843-1.6694-1.6264-2.971-1.6264"/>
  </g>
  <g>
   <path d="m216.24 228.1v13.557h-6.4616v-2.2065-8.1302c-2e-5 -1.948-0.0419-3.2865-0.12564-4.0154-0.0718-0.72884-0.20345-1.2656-0.39488-1.6101-0.25131-0.46382-0.59233-0.82162-1.0231-1.0734-0.43079-0.26502-0.92139-0.39754-1.4718-0.39757-1.3402 3e-5 -2.3932 0.57649-3.159 1.7294-0.76583 1.1397-1.1487 2.7233-1.1487 4.7509v10.953h-6.4257c-5.4557-18.695 6.4057-40.603 6.4257-19.003 0.96923-1.2987 1.9983-2.2528 3.0872-2.8624 1.0889-0.62282 2.2914-0.93424 3.6077-0.93426 2.3214 2e-5 4.0804 0.78852 5.277 2.3655 1.2085 1.577 1.8128 3.8696 1.8128 6.8778"/>
   <path d="m243.47 223.61c-3.7257 6.1044-0.90369 16.197 4.0331 18.054l-11.202 8.4e-4v-4.3993-8.4317c-3e-5 -2.0203-0.0466-3.4084-0.13984-4.1643-0.0799-0.7559-0.22641-1.3125-0.43947-1.6698-0.27968-0.48102-0.65922-0.8521-1.1386-1.1132-0.47943-0.27484-1.0254-0.41228-1.638-0.4123-1.4916 2e-5 -2.6635 0.59788-3.5158 1.7936-0.85231 1.182-1.2785 2.8243-1.2785 4.9271v13.47h-7.1514c-6.0719-19.389 7.0706-43.549 7.1514-21.819 1.0787-1.3468 2.224-2.3364 3.4359-2.9686 1.2119-0.64592 2.5502-0.9689 4.0152-0.96892 2.5835 2e-5 4.5412 0.81777 5.8729 2.4532 0.79712 0.85801 1.8806 2.7409 2.0176 4.4706"/>
   <path d="m254.66 223.76c-1.3723 2e-5 -2.4216 0.55687-3.1481 1.6706-0.71496 1.1008-1.0724 2.6936-1.0724 4.7785 0 2.085 0.35748 3.6843 1.0724 4.798 0.72647 1.1008 1.7758 1.6511 3.1481 1.6511 1.3492 0 2.3812-0.55036 3.0962-1.6511 0.71494-1.1137 1.0724-2.713 1.0724-4.798-1e-5 -2.0849-0.35749-3.6778-1.0724-4.7785-0.71497-1.1137-1.747-1.6705-3.0962-1.6706m0-4.9728c3.3326 2e-5 5.933 1.0101 7.8011 3.0303 1.8796 2.0202 2.8194 4.8174 2.8195 8.3916-2e-5 3.5742-0.93984 6.3714-2.8195 8.3916-1.8681 2.0202-4.4685 3.0303-7.8011 3.0303-3.3442-1e-5 -5.9618-1.0101-7.853-3.0303-1.8796-2.0202-2.8195-4.8174-2.8195-8.3916 0-3.5742 0.93982-6.3714 2.8195-8.3916 1.8912-2.0202 4.5088-3.0303 7.853-3.0303"/>
   <path d="m273.19 237.89v11.385c-14.984 2.8129-5.8802-24.53 2.7842-29.547 1.0186-0.60665 2.19-0.90999 3.5142-0.91001 2.3428 2e-5 4.2669 1.0649 5.7722 3.1947 1.5053 2.1169 2.2579 4.847 2.2579 8.1902-2e-5 3.3432-0.75267 6.0797-2.2579 8.2095-1.5053 2.1169-3.4294 3.1754-5.7722 3.1754-1.3242-1e-5 -2.4956-0.29689-3.5142-0.89066-1.0186-0.60668-1.9467-1.5425-2.7842-2.8075m4.0405-14.038c-1.3016 2e-5 -2.3032 0.54861-3.0049 1.6458-0.6904 1.0843-1.0356 2.6526-1.0356 4.705-1e-5 2.0524 0.34519 3.6272 1.0356 4.7244 0.70171 1.0843 1.7034 1.6264 3.0049 1.6264 1.3016 0 2.2919-0.54213 2.971-1.6264 0.69038-1.0843 1.0356-2.6591 1.0356-4.7244-2e-5 -2.0653-0.34521-3.6401-1.0356-4.7244-0.6791-1.0843-1.6694-1.6264-2.971-1.6264"/>
   <path d="m345.12 224.61c-1.7969 1e-5 -3.2278 0.53761-4.2044 1.7008-0.96355 1.1501-1.4453 2.8034-1.4453 4.9599v10.116c-16.799 2.8419-4.274-17.8 3.0859-21.486 1.7816-0.81002 3.2834-1.047 4.9609-0.96057 2.7576-0.0258 2.2202 3.4426 1.4761 5.7212"/>
   <path d="m316.25 221.41c1.8056-1.43 5.0427-2.7803 8.1475-2.5892 3.6564 0.22505 5.3872 2.1725 6.3336 4.2795 1.0251 2.9376 0.94027 6.0681-0.74751 8.1136-3.2468 3.4727-6.5354 3.639-11.171 2.5383 0 0 1.979 2.5074 4.9384 5.6908-4.8876 4.8689-10.733 0.47524-11.814-4.5179-0.86077-3.9755-0.0243-10.079 4.3136-13.515zm5.1614 2.2855c-1.5416 0.0293-2.2325 0.51822-2.9359 1.2276-0.65794 0.81266-0.71006 1.8117-0.7481 2.8737-0.0504 1.4057 0.40944 2.3679 0.90296 2.8695 0.79355 0.70614 1.8458 0.85149 2.9218 0.84938 1.0354-2e-3 1.8817-0.26332 2.5292-0.91308 0.31164-0.36144 0.98811-1.0882 0.96594-2.8626-2e-3 -1.4668-0.33341-2.3026-0.90913-2.9446-0.91759-0.84199-1.6404-1.0636-2.5563-1.0889"/>
   <path d="m148.51 224.64c-2.0469 1e-5 -3.2278 0.5405-4.2044 1.71-0.96355 1.1563-1.4453 2.8186-1.4453 4.9867v10.17c-16.799 2.8573-4.274-17.896 3.0859-21.602 1.7816-0.81441 3.2834-1.0526 4.9609-0.96577 2.7576-0.026 2.2202 3.4612 1.4761 5.7521"/>
   <path d="m125.48 214.66c-3.5305-3.949-9.1166-4.2011-12.908-1.6164-2.7281 1.907-4.6712 4.8464-5.8294 8.8184-1.1582 3.972-1.1088 7.5273 0.14795 10.666 3.3156 6.8117 9.0425 7.113 15.514 5.8865 0 0-2.0937 4.5225-3.6224 7.6414 7.7704 7.6452 12.589 1.0034 13.302-7.1882 0.71389-8.1916-1.7328-19.477-6.6046-24.207zm-2.9048 3.8132c1.7248 0.52587 2.862 1.5823 3.4117 3.1694 0.53922 1.5672 0.45333 3.5699-0.2577 6.0083-0.71101 2.4384-1.714 4.1699-3.009 5.1945-1.3055 1.0047-2.8206 1.2441-4.5453 0.71827-1.7247-0.52586-2.8492-1.5701-3.3734-3.1327-0.53921-1.5671-0.45106-3.5776 0.2644-6.0313 0.71553-2.4537 1.7185-4.1852 3.009-5.1945 1.2755-1.0138 2.7756-1.2578 4.5003-0.73199"/>
   <path d="m295.41 237.96v11.385c-14.984 2.8129-5.8802-24.53 2.7842-29.547 1.0186-0.60665 2.19-0.90999 3.5142-0.91001 2.3428 2e-5 4.2669 1.0649 5.7722 3.1947 1.5053 2.1169 2.2579 4.847 2.2579 8.1902-2e-5 3.3432-0.75267 6.0797-2.2579 8.2095-1.5053 2.1169-3.4294 3.1754-5.7722 3.1754-1.3242-1e-5 -2.4956-0.29689-3.5142-0.89066-1.0186-0.60668-1.9467-1.5425-2.7842-2.8075m4.0405-14.038c-1.3016 2e-5 -2.3032 0.54861-3.0049 1.6458-0.6904 1.0843-1.0356 2.6526-1.0356 4.705-1e-5 2.0524 0.34519 3.6272 1.0356 4.7244 0.70171 1.0843 1.7034 1.6264 3.0049 1.6264 1.3016 0 2.2919-0.54213 2.971-1.6264 0.69038-1.0843 1.0356-2.6591 1.0356-4.7244-2e-5 -2.0653-0.34521-3.6401-1.0356-4.7244-0.6791-1.0843-1.6694-1.6264-2.971-1.6264"/>
   <path d="m178.23 238.01v11.385c-14.984 2.8129-5.8802-24.53 2.7842-29.547 1.0186-0.60665 2.19-0.90999 3.5142-0.91001 2.3428 2e-5 4.2669 1.0649 5.7722 3.1947 1.5053 2.1169 2.2579 4.847 2.2579 8.1902-2e-5 3.3432-0.75267 6.0797-2.2579 8.2095-1.5053 2.1169-3.4294 3.1754-5.7722 3.1754-1.3242-1e-5 -2.4956-0.29689-3.5142-0.89066-1.0186-0.60668-1.9467-1.5425-2.7842-2.8075m4.0405-14.038c-1.3016 2e-5 -2.3032 0.54861-3.0049 1.6458-0.6904 1.0843-1.0356 2.6526-1.0356 4.705-1e-5 2.0524 0.34519 3.6272 1.0356 4.7244 0.70171 1.0843 1.7034 1.6264 3.0049 1.6264 1.3016 0 2.2919-0.54213 2.971-1.6264 0.69038-1.0843 1.0356-2.6591 1.0356-4.7244-2e-5 -2.0653-0.34521-3.6401-1.0356-4.7244-0.6791-1.0843-1.6694-1.6264-2.971-1.6264"/>
  </g>
  <g transform="translate(1.1318 1.274)" fill="#ccc">
   <path d="m166.74 238.57c-1.645 1.5351-4.682 3.0968-7.7024 3.1367-3.5569 0.0469-5.3736-1.7368-6.4423-3.7345-1.205-2.8068-1.3491-5.8842 0.13742-8.0144 2.893-3.6445 6.0654-4.0485 10.634-3.3081 0 0-2.0976-2.3149-5.1933-5.2212 4.3809-5.1344 9.0772-1.2963 10.485 3.5229 1.1208 3.837 2.0337 9.9305-1.9185 13.619zm-4.8507-1.8017c0.83442 0.0146 1.5931-0.4531 2.2229-1.2005 0.57837-0.84542 0.82441-1.8602 0.79796-2.9052-0.0215-0.85147-0.19262-1.6367-0.67551-2.5615-0.60071-0.91589-1.4114-1.2627-2.3282-1.2756-1.0054-0.0141-1.6468 0.30236-2.2269 0.9872-0.88394 1.0731-1.205 3.5751-0.1353 5.6075 0.44938 0.75883 1.0479 1.3939 2.2178 1.3517"/>
   <path d="m169.62 230.83 0.0275 3.4652c-0.77331 1.7612-1.44 3.8423-1.6297 7.3543h-3.1219l-0.0436-2.6064 0.88216-7.8666"/>
  </g>
  <g>
   <path d="m166.74 238.57c-1.645 1.5351-4.682 3.0968-7.7024 3.1367-3.5569 0.0469-5.3736-1.7368-6.4423-3.7345-1.205-2.8068-1.3491-5.8842 0.13742-8.0144 2.893-3.6445 6.0654-4.0485 10.634-3.3081 0 0-2.0976-2.3149-5.1933-5.2212 4.3809-5.1344 9.0772-1.2963 10.485 3.5229 1.1208 3.837 2.0337 9.9305-1.9185 13.619zm-4.8507-1.8017c0.83442 0.0146 1.5931-0.4531 2.2229-1.2005 0.57837-0.84542 0.82441-1.8602 0.79796-2.9052-0.0215-0.85147-0.19262-1.6367-0.67551-2.5615-0.60071-0.91589-1.4114-1.2627-2.3282-1.2756-1.0054-0.0141-1.7718 0.48986-2.3519 1.1747-0.88394 1.0731-1.205 3.5126-0.1353 5.545 0.44938 0.75883 1.1729 1.2689 2.3428 1.2267"/>
   <path d="m169.62 230.83 0.0275 3.4652c-0.77331 1.7612-1.44 3.8423-1.6297 7.3543h-3.1219l-0.0436-2.6064 0.88216-7.8666"/>
  </g>
 </g>
</svg>
