<?xml version="1.0" encoding="UTF-8" standalone="no"?>
<!-- Created with Inkscape (http://www.inkscape.org/) -->

<svg
   width="96"
   height="96"
   viewBox="0 0 11 11"
   version="1.1"
   id="svg5"
   xml:space="preserve"
   sodipodi:docname="settings.svg"
   inkscape:version="1.2.1 (2ed6d7ae0b, 2022-08-22, custom)"
   xmlns:inkscape="http://www.inkscape.org/namespaces/inkscape"
   xmlns:sodipodi="http://sodipodi.sourceforge.net/DTD/sodipodi-0.dtd"
   xmlns="http://www.w3.org/2000/svg"
   xmlns:svg="http://www.w3.org/2000/svg"><sodipodi:namedview
   id="namedview22"
   pagecolor="#ffffff"
   bordercolor="#666666"
   borderopacity="1.0"
   inkscape:showpageshadow="2"
   inkscape:pageopacity="0.0"
   inkscape:pagecheckerboard="0"
   inkscape:deskcolor="#d1d1d1"
   showgrid="true"
   inkscape:zoom="16.676939"
   inkscape:cx="40.085294"
   inkscape:cy="32.70984"
   inkscape:window-width="1920"
   inkscape:window-height="966"
   inkscape:window-x="0"
   inkscape:window-y="0"
   inkscape:window-maximized="1"
   inkscape:current-layer="svg5"><inkscape:grid
     type="xygrid"
     id="grid8447" /></sodipodi:namedview>
    <defs
   id="defs2" />
    <g
   id="layer1"
   inkscape:highlight-color="#729fcf">
       <path
               fill="currentColor"
   d="m 4.1940067,10.685074 -0.26458,-1.6668756 q -0.25135,-0.0926 -0.52917,-0.251354 -0.27781,-0.15875 -0.48948,-0.330729 L 1.3497367,9.1504904 0.11942671,6.9809076 1.5481767,5.9358026 q -0.0265,-0.119062 -0.0331,-0.271197 -0.007,-0.152136 -0.007,-0.271198 0,-0.119063 0.007,-0.271198 0.007,-0.152136 0.0331,-0.271198 l -1.42874999,-1.045104 1.23030999,-2.169584 1.56104,0.714375 q 0.21167,-0.171979 0.48948,-0.330729 0.27782,-0.15875 0.52917,-0.238125 l 0.26458,-1.68010402 h 2.43417 l 0.26458,1.66687502 q 0.25136,0.0926 0.53578,0.24474 0.28443,0.152135 0.48287,0.337343 l 1.5610396,-0.714375 1.2303097,2.169584 -1.4287497,1.018645 q 0.0265,0.132292 0.0331,0.284428 0.007,0.152135 0.007,0.284427 0,0.132291 -0.007,0.277812 -0.007,0.145521 -0.0331,0.277813 L 10.702756,6.9809076 9.4724463,9.1504904 7.9114067,8.4361154 q -0.21167,0.171979 -0.48287,0.337344 -0.27119,0.165364 -0.53578,0.244739 l -0.26458,1.6668756 z m 1.21709,-3.5718754 q 0.71437,0 1.21708,-0.502708 0.50271,-0.502708 0.50271,-1.217083 0,-0.714375 -0.50271,-1.217084 -0.50271,-0.502708 -1.21708,-0.502708 -0.71438,0 -1.21709,0.502708 -0.50271,0.502709 -0.50271,1.217084 0,0.714375 0.50271,1.217083 0.50271,0.502708 1.21709,0.502708 z m 0,-0.79375 q -0.38365,0 -0.65485,-0.271198 -0.2712,-0.271198 -0.2712,-0.654843 0,-0.383646 0.2712,-0.654844 0.2712,-0.271198 0.65485,-0.271198 0.38364,0 0.65484,0.271198 0.2712,0.271198 0.2712,0.654844 0,0.383645 -0.2712,0.654843 -0.2712,0.271198 -0.65484,0.271198 z m 0,-0.926041 z m -0.58209,4.4979168 h 1.16417 l 0.18521,-1.481667 q 0.43656,-0.105834 0.82682,-0.33073 0.39026,-0.224895 0.70776,-0.5423948 l 1.4022896,0.6085408 0.52917,-0.9524998 -1.24354,-0.912812 q 0.0529,-0.224896 0.086,-0.443177 0.0331,-0.218282 0.0331,-0.443177 0,-0.224896 -0.0265,-0.443177 -0.0265,-0.218282 -0.0926,-0.443178 l 1.24354,-0.912812 -0.52917,-0.9525 -1.4022896,0.608542 q -0.30427,-0.343959 -0.68792,-0.575469 -0.38364,-0.231511 -0.84666,-0.297656 l -0.18521,-1.48166702 h -1.16417 l -0.18521,1.48166702 q -0.44979,0.0926 -0.84005,0.3175 -0.39026,0.224895 -0.69453,0.555625 l -1.40229,-0.608542 -0.52917,0.9525 1.24354,0.912812 q -0.0529,0.224896 -0.086,0.443178 -0.0331,0.218281 -0.0331,0.443177 0,0.224895 0.0331,0.443177 0.0331,0.218281 0.086,0.443177 l -1.24355,0.912812 0.52917,0.9524998 1.40229,-0.6085408 q 0.3175,0.3174998 0.70776,0.5423948 0.39026,0.224896 0.82682,0.33073 z"
   id="path25"
   style="stroke-width:0.1"
   inkscape:highlight-color="#729fcf" />
    </g>
<rect
   style="fill:#ffffff;stroke-width:0.209373"
   id="rect8445"
   width="1.2084414"
   height="1.6327094"
   x="4.8027544"
   y="3.42085"
   ry="0.048579078" /></svg>
