<?xml version="1.0" encoding="UTF-8" standalone="no"?>
<!-- Created with Inkscape (http://www.inkscape.org/) -->

<svg
   width="96"
   height="96"
   viewBox="0 0 11 11"
   version="1.1"
   id="svg5"
   xml:space="preserve"
   sodipodi:docname="settings-clicked.svg"
   inkscape:version="1.2.1 (2ed6d7ae0b, 2022-08-22, custom)"
   xmlns:inkscape="http://www.inkscape.org/namespaces/inkscape"
   xmlns:sodipodi="http://sodipodi.sourceforge.net/DTD/sodipodi-0.dtd"
   xmlns="http://www.w3.org/2000/svg"
   xmlns:svg="http://www.w3.org/2000/svg"><sodipodi:namedview
   id="namedview22"
   pagecolor="#ffffff"
   bordercolor="#666666"
   borderopacity="1.0"
   inkscape:showpageshadow="2"
   inkscape:pageopacity="0.0"
   inkscape:pagecheckerboard="0"
   inkscape:deskcolor="#d1d1d1"
   showgrid="false"
   inkscape:zoom="5.7305111"
   inkscape:cx="22.947342"
   inkscape:cy="63.257883"
   inkscape:window-width="1680"
   inkscape:window-height="936"
   inkscape:window-x="0"
   inkscape:window-y="0"
   inkscape:window-maximized="1"
   inkscape:current-layer="svg5" />
    <defs
   id="defs2" />
    <g
   id="layer1"
   inkscape:highlight-color="#729fcf">
       <path
   d="m 4.1940067,10.685074 -0.26458,-1.6668756 q -0.25135,-0.0926 -0.52917,-0.251354 -0.27781,-0.15875 -0.48948,-0.330729 L 1.3497367,9.1504904 0.11942671,6.9809076 1.5481767,5.9358026 q -0.0265,-0.119062 -0.0331,-0.271197 -0.007,-0.152136 -0.007,-0.271198 0,-0.119063 0.007,-0.271198 0.007,-0.152136 0.0331,-0.271198 l -1.42874999,-1.045104 1.23030999,-2.169584 1.56104,0.714375 q 0.21167,-0.171979 0.48948,-0.330729 0.27782,-0.15875 0.52917,-0.238125 l 0.26458,-1.68010402 h 2.43417 l 0.26458,1.66687502 q 0.25136,0.0926 0.53578,0.24474 0.28443,0.152135 0.48287,0.337343 l 1.5610396,-0.714375 1.2303097,2.169584 -1.4287497,1.018645 q 0.0265,0.132292 0.0331,0.284428 0.007,0.152135 0.007,0.284427 0,0.132291 -0.007,0.277812 -0.007,0.145521 -0.0331,0.277813 L 10.702756,6.9809076 9.4724463,9.1504904 7.9114067,8.4361154 q -0.21167,0.171979 -0.48287,0.337344 -0.27119,0.165364 -0.53578,0.244739 l -0.26458,1.6668756 z m 1.21709,-3.5718754 q 0.71437,0 1.21708,-0.502708 0.50271,-0.502708 0.50271,-1.217083 0,-0.714375 -0.50271,-1.217084 -0.50271,-0.502708 -1.21708,-0.502708 -0.71438,0 -1.21709,0.502708 -0.50271,0.502709 -0.50271,1.217084 0,0.714375 0.50271,1.217083 0.50271,0.502708 1.21709,0.502708 z m 0,-0.79375 q -0.38365,0 -0.65485,-0.271198 -0.2712,-0.271198 -0.2712,-0.654843 0,-0.383646 0.2712,-0.654844 0.2712,-0.271198 0.65485,-0.271198 0.38364,0 0.65484,0.271198 0.2712,0.271198 0.2712,0.654844 0,0.383645 -0.2712,0.654843 -0.2712,0.271198 -0.65484,0.271198 z m 0,-0.926041 z m -0.58209,4.4979168 h 1.16417 l 0.18521,-1.481667 q 0.43656,-0.105834 0.82682,-0.33073 0.39026,-0.224895 0.70776,-0.5423948 l 1.4022896,0.6085408 0.52917,-0.9524998 -1.24354,-0.912812 q 0.0529,-0.224896 0.086,-0.443177 0.0331,-0.218282 0.0331,-0.443177 0,-0.224896 -0.0265,-0.443177 -0.0265,-0.218282 -0.0926,-0.443178 l 1.24354,-0.912812 -0.52917,-0.9525 -1.4022896,0.608542 q -0.30427,-0.343959 -0.68792,-0.575469 -0.38364,-0.231511 -0.84666,-0.297656 l -0.18521,-1.48166702 h -1.16417 l -0.18521,1.48166702 q -0.44979,0.0926 -0.84005,0.3175 -0.39026,0.224895 -0.69453,0.555625 l -1.40229,-0.608542 -0.52917,0.9525 1.24354,0.912812 q -0.0529,0.224896 -0.086,0.443178 -0.0331,0.218281 -0.0331,0.443177 0,0.224895 0.0331,0.443177 0.0331,0.218281 0.086,0.443177 l -1.24355,0.912812 0.52917,0.9524998 1.40229,-0.6085408 q 0.3175,0.3174998 0.70776,0.5423948 0.39026,0.224896 0.82682,0.33073 z"
   id="path25"
   style="stroke-width:0.1"
   inkscape:highlight-color="#729fcf" />
    </g>
<path
   style="stroke-width:3.68955;stroke-dasharray:none;stroke-opacity:1"
   d="M 41.470242,80.053942 C 41.056975,76.670735 40.683698,73.775053 40.640738,73.619091 40.589936,73.434668 39.938951,73.138 38.778791,72.770563 35.128977,71.614621 31.266161,69.396355 28.501318,66.868608 l -1.338952,-1.224133 -5.989189,2.604509 c -3.294054,1.43248 -6.074498,2.571771 -6.178766,2.53176 -0.20224,-0.07761 -4.436888,-7.624674 -4.436888,-7.907502 0,-0.09224 2.290381,-1.849549 5.089736,-3.905137 2.799356,-2.055586 5.202261,-3.82063 5.339789,-3.922317 0.215469,-0.159317 0.200903,-0.424805 -0.105313,-1.919549 -0.873149,-4.26214 -0.905134,-7.307532 -0.12073,-11.49498 0.232494,-1.241144 0.386393,-2.315398 0.341997,-2.387231 -0.0444,-0.07183 -1.98376,-1.524427 -4.309698,-3.227986 -2.325939,-1.703558 -4.710329,-3.459894 -5.298645,-3.902967 l -1.069665,-0.80559 2.231059,-4.005568 c 1.227083,-2.203061 2.29886,-4.005566 2.381727,-4.005566 0.08287,0 2.838919,1.166655 6.124561,2.592567 l 5.973893,2.592566 1.48834,-1.408836 c 1.745246,-1.65202 4.301166,-3.402083 6.373331,-4.363877 1.638281,-0.760408 3.882561,-1.542302 4.888673,-1.703186 0.481834,-0.07705 0.680624,-0.204941 0.742611,-0.477764 0.04656,-0.204903 0.423901,-3.140628 0.838547,-6.523834 l 0.753901,-6.1512843 h 5.021231 c 3.89978,0 5.021596,0.048718 5.022861,0.2181306 0.0044,0.5880111 1.566307,12.5498137 1.658081,12.6983067 0.05826,0.09427 0.278535,0.171401 0.489495,0.171401 0.552585,0 3.16265,0.748495 4.440376,1.273378 2.214926,0.909881 5.049991,2.867712 7.162602,4.94633 l 1.324079,1.302774 5.855088,-2.532341 c 3.220299,-1.392787 5.966194,-2.555288 6.101988,-2.583336 0.227703,-0.04703 1.30732,1.754365 3.951107,6.592619 l 0.769642,1.40848 -5.413512,3.973354 c -4.620997,3.391671 -5.397262,4.02455 -5.302515,4.323073 0.434366,1.368569 0.801592,3.906236 0.891782,6.16256 0.109949,2.750575 -0.03933,4.451569 -0.649437,7.400089 -0.322769,1.559871 -0.324476,1.652378 -0.03437,1.861562 3.976399,2.867255 10.421719,7.705103 10.407361,7.81175 -0.04826,0.358518 -4.363462,7.96253 -4.517944,7.961284 -0.09598,-6.98e-4 -2.844424,-1.16361 -6.107658,-2.584076 l -5.933153,-2.582669 -1.483288,1.288575 c -3.287796,2.856202 -7.203068,5.012308 -11.02348,6.070535 -0.940773,0.260586 -0.994452,0.305872 -1.0907,0.920134 -0.141178,0.900993 -1.497172,11.821925 -1.497172,12.057942 0,0.136089 -1.474505,0.192667 -5.021231,0.192667 H 42.221637 Z M 50.19832,61.87324 c 2.661356,-0.520342 4.632416,-1.459508 6.685577,-3.185527 4.533466,-3.811121 6.33809,-9.379001 4.971978,-15.340241 -0.605912,-2.643993 -1.876855,-4.870515 -3.950047,-6.919966 -2.133937,-2.109495 -4.120407,-3.278639 -6.776008,-3.988036 -1.832983,-0.489651 -5.674187,-0.5389 -7.482111,-0.09593 -5.468181,1.339786 -9.85802,5.770571 -11.117558,11.221252 -0.32275,1.396703 -0.366051,1.998211 -0.296621,4.120354 0.07231,2.21024 0.143053,2.668139 0.64,4.142693 0.75905,2.25227 1.916238,4.128485 3.598501,5.834448 2.172997,2.203608 4.747193,3.628085 7.590356,4.200255 1.540741,0.310065 4.577707,0.315362 6.135933,0.0107 z"
   id="path2221"
   transform="scale(0.11458333)" /></svg>
