<?xml version="1.0" encoding="UTF-8" standalone="no"?>
<svg
   width="48"
   height="48"
   viewBox="0 0 500 500"
   version="1.1"
   xmlns="http://www.w3.org/2000/svg"
   xmlns:svg="http://www.w3.org/2000/svg">
  <path
     d="m 344.77278,249.99996 142.14487,-142.1448 c 17.44313,-17.443226 17.44313,-45.724466 0,-63.181868 L 455.32674,13.082391 c -17.44319,-17.4431881 -45.72443,-17.4431881 -63.18174,0 L 249.99995,155.22726 107.85517,13.082391 c -17.443233,-17.4431882 -45.724475,-17.4431882 -63.18187,0 L 13.082392,44.673292 c -17.4431894,17.443188 -17.4431894,45.724448 0,63.181868 L 155.22725,249.99996 13.082392,392.145 c -17.4431894,17.44314 -17.4431894,45.72441 0,63.18174 L 44.6733,486.91765 c 17.443182,17.44313 45.738637,17.44313 63.18187,0 L 249.99995,344.77278 392.145,486.91765 c 17.44314,17.44313 45.73855,17.44313 63.18174,0 l 31.59091,-31.59091 c 17.44313,-17.44319 17.44313,-45.72443 0,-63.18174 z"
     style="stroke-width:1.42056" />
</svg>
