<svg xmlns="http://www.w3.org/2000/svg" height="24" viewBox="0 -960 960 960" width="24"><path fill="currentColor" d="M554-118q-53 0-90.5-36.5T426-244q0-30 13-64t39.5-64.5q26.5-30.5 67-54T641-459q-3-40-19-56.5T582-532q-30 0-65 25t-83 82q-78 93-114.5 121T241-276q-51 0-86-37.5T120-404q0-53 23.5-109T223-647q18-26 27.5-44t9.5-29q0-7-2.5-10.5T250-734q-10 0-25 12.5T190-684l-70-70q32-39 65-59.5t65-20.5q47 0 78.5 32.5T360-722q0 29-15 63.5T295-576q-38 54-56.5 95T220-411q0 17 5.5 26t15.5 9q12 0 33.5-20.5T361-493q63-75 114-107t107-32q77 0 115.5 51T741-464h99v100h-99q-6 88-49 167t-138 79Zm2-100q39 0 58.5-44.5T640-357q-56 14-85 48.5T526-248q0 14 8 22t22 8Z"/></svg>