<?xml version="1.0" encoding="UTF-8" standalone="no"?>
<svg
   height="48"
   viewBox="0 -960 960 960"
   width="48"
   version="1.1"
   id="svg1430"
   xmlns="http://www.w3.org/2000/svg"
   xmlns:svg="http://www.w3.org/2000/svg">
  <defs
     id="defs1434" />
  <path
     fill="currentColor"
     d="M450-40v-75q-137-14-228-105T117-448H42v-60h75q14-137 105-228t228-105v-75h60v75q137 14 228 105t105 228h75v60h-75q-14 137-105 228T510-115v75h-60Zm30-134q125 0 214.5-89.5T784-478q0-125-89.5-214.5T480-782q-125 0-214.5 89.5T176-478q0 125 89.5 214.5T480-174Z"/>
  <circle fill="currentColor" cx="479.60876" cy="-481.74091" r="100">
      <animate attributeName="r" values="0;200;0" dur="2s" repeatCount="indefinite" />
  </circle>
</svg>
