<?xml version="1.0" encoding="UTF-8" standalone="no"?>
<svg
   height="24"
   viewBox="0 96 960 960"
   width="24"
   version="1.1"
   id="svg20"
   xmlns="http://www.w3.org/2000/svg"
   xmlns:svg="http://www.w3.org/2000/svg">
  <path
     fill="currentColor"
     d="M 45.142243,628.97642 V 145.81489 l 256.813497,0.53737 13.5001,61.10573 176.37044,0.90733 -1.02961,277.72143 -189.16001,-0.90733 -13.4525,-60.39519 H 99.845673 l 1.029607,204.72956 z M 338.90338,427.7228 h 103.0271 L 440.90087,264.9146 H 278.18912 L 264.68901,203.80888 H 99.845673 l 1.029607,163.51873 h 224.528 z"
     style="stroke-width:0.710532"
     id="path18"/>
  <path
     fill="currentColor"
     d="M 606.25731,1024.678 V 680.05489 h 189.17491 l 9.62918,43.58468 130.32161,0.67576 v 200.9008 L 795.93902,924.54037 786.3438,881.46248 H 652.00822 V 1024.678 Z M 821.78575,880.74714 h 73.4858 V 767.43279 H 779.21467 l -9.62918,-43.58468 H 652.00822 v 113.82115 h 160.14836 z"
     style="stroke-width:0.506799"
     id="path20" />
  <path
     style="fill:none;stroke:currentColor;stroke-width:60;stroke-linecap:butt;stroke-linejoin:miter;stroke-dasharray:none;stroke-opacity:1"
     d="M 718.58876,177.47849 658.92328,490.29471 519.76256,617.55819 364.9325,673.86164 254.19268,905.93101 54.344491,965.74491"
     id="path1133" />
</svg>
