<?xml version="1.0" encoding="UTF-8" standalone="no"?>
<svg
   height="24"
   viewBox="0 96 960 960"
   width="24"
   version="1.1"
   id="svg20"
   xmlns="http://www.w3.org/2000/svg"
   xmlns:svg="http://www.w3.org/2000/svg">
  <defs
     id="defs2290" />
  <ellipse
     style="fill:none;stroke:currentColor;stroke-width:48;stroke-dasharray:none;stroke-opacity:1"
     id="path1531" cx="654.30994" cy="728.63855" rx="232.52235" ry="232.52237" />
  <path
     style="fill:none;stroke:currentColor;stroke-width:48;stroke-linecap:butt;stroke-linejoin:miter;stroke-dasharray:none;stroke-opacity:1"
     d="M 476.2469,174.47198 524.57404,529.6863"
     id="path1753" />
  <path
     style="fill:none;stroke:currentColor;stroke-width:48;stroke-linecap:butt;stroke-linejoin:miter;stroke-dasharray:none;stroke-opacity:1"
     d="M 194.05611,175.10273 107.99228,971.81347"
     id="path1757" />
  <path
     style="fill:none;stroke:currentColor;stroke-width:44;stroke-linecap:butt;stroke-linejoin:miter;stroke-dasharray:none;stroke-opacity:1"
     d="m 338.30488,192.51938 0.13163,163.04002"
     id="path1757-3" />
  <path
     style="fill:none;stroke:currentColor;stroke-width:44;stroke-linecap:butt;stroke-linejoin:miter;stroke-dasharray:none;stroke-opacity:1"
     d="m 338.30488,455.74075 0.13163,163.04002"
     id="path1757-3-3" />
  <path
     style="fill:none;stroke:currentColor;stroke-width:48;stroke-linecap:butt;stroke-linejoin:miter;stroke-dasharray:none;stroke-opacity:1"
     d="m 657.17651,542.35707 0.0175,40.21146"
     id="path1757-3-6" />
  <path
     style="fill:none;stroke:currentColor;stroke-width:48;stroke-linecap:butt;stroke-linejoin:miter;stroke-dasharray:none;stroke-opacity:1"
     d="m 658.59831,870.66545 0.0705,42.4833"
     id="path1757-3-6-5" />
  <path
     style="fill:none;stroke:currentColor;stroke-width:43.9994;stroke-linecap:butt;stroke-linejoin:miter;stroke-dasharray:none;stroke-opacity:1"
     d="m 338.30456,731.3817 0.12066,149.45116"
     id="path1757-3-6-7" />
  <path
     style="fill:none;stroke:currentColor;stroke-width:43.9287;stroke-linecap:butt;stroke-linejoin:miter;stroke-dasharray:none;stroke-opacity:1"
     d="m 728.41135,623.88373 c -14.47067,-16.72956 -36.41562,-35.03466 -65.87339,-35.67526 -45.73162,-0.99449 -70.37557,21.6685 -70.76659,56.44498 -0.8668,77.09118 148.24933,75.89265 148.22169,165.68599 -0.0121,39.39995 -53.63044,52.42982 -83.81406,51.95643 -36.23822,-0.56835 -65.60309,-20.78668 -90.65422,-59.17736"
     id="path15196" />
</svg>
