<?xml version="1.0" encoding="UTF-8" standalone="no"?>
<!-- Created with Inkscape (http://www.inkscape.org/) -->

<svg
   width="24"
   height="24"
   id="svg4460"
   version="1.1"
   inkscape:version="1.3.1 (91b66b0783, 2023-11-16, custom)"
   sodipodi:docname="question_mark.svg"
   inkscape:export-filename="/home/peterk/Documents/quell/graphhopper/web/src/main/webapp/img/racingbike.png"
   inkscape:export-xdpi="110"
   inkscape:export-ydpi="110"
   xmlns:inkscape="http://www.inkscape.org/namespaces/inkscape"
   xmlns:sodipodi="http://sodipodi.sourceforge.net/DTD/sodipodi-0.dtd"
   xmlns="http://www.w3.org/2000/svg"
   xmlns:svg="http://www.w3.org/2000/svg"
   xmlns:rdf="http://www.w3.org/1999/02/22-rdf-syntax-ns#"
   xmlns:cc="http://creativecommons.org/ns#"
   xmlns:dc="http://purl.org/dc/elements/1.1/">
  <defs
     id="defs4462" />
  <sodipodi:namedview
     id="base"
     pagecolor="#ffffff"
     bordercolor="#666666"
     borderopacity="1.0"
     inkscape:pageopacity="0.0"
     inkscape:pageshadow="2"
     inkscape:zoom="33.305351"
     inkscape:cx="10.61391"
     inkscape:cy="11.920007"
     inkscape:document-units="px"
     inkscape:current-layer="layer1"
     showgrid="true"
     showguides="true"
     inkscape:guide-bbox="true"
     inkscape:window-width="3840"
     inkscape:window-height="2074"
     inkscape:window-x="0"
     inkscape:window-y="46"
     inkscape:window-maximized="1"
     inkscape:snap-global="false"
     inkscape:pagecheckerboard="0"
     inkscape:showpageshadow="2"
     inkscape:deskcolor="#d1d1d1">
    <inkscape:grid
       type="xygrid"
       id="grid4468"
       empspacing="5"
       visible="true"
       enabled="true"
       snapvisiblegridlinesonly="true"
       originx="0"
       originy="0"
       spacingy="1"
       spacingx="1"
       units="px" />
    <sodipodi:guide
       orientation="1,0"
       position="0,20"
       id="guide4470"
       inkscape:locked="false" />
    <sodipodi:guide
       orientation="0,1"
       position="4,24"
       id="guide4472"
       inkscape:locked="false" />
    <sodipodi:guide
       orientation="1,0"
       position="24,13"
       id="guide4474"
       inkscape:locked="false" />
    <sodipodi:guide
       orientation="0,1"
       position="15,0"
       id="guide4476"
       inkscape:locked="false" />
    <sodipodi:guide
       orientation="1,0"
       position="23,20"
       id="guide4478"
       inkscape:locked="false" />
    <sodipodi:guide
       orientation="0,1"
       position="20,23"
       id="guide4480"
       inkscape:locked="false" />
    <sodipodi:guide
       orientation="1,0"
       position="2,5"
       id="guide4482"
       inkscape:locked="false" />
    <sodipodi:guide
       orientation="0,1"
       position="7,2"
       id="guide4484"
       inkscape:locked="false" />
  </sodipodi:namedview>
  <metadata
     id="metadata4465">
    <rdf:RDF>
      <cc:Work
         rdf:about="">
        <dc:format>image/svg+xml</dc:format>
        <dc:type
           rdf:resource="http://purl.org/dc/dcmitype/StillImage" />
      </cc:Work>
    </rdf:RDF>
  </metadata>
  <g
     inkscape:label="Layer 1"
     inkscape:groupmode="layer"
     id="layer1"
     transform="translate(0,-1028.3622)">
    <path
       style="stroke-opacity:1;stroke-dasharray:none;stroke-miterlimit:4;stroke-linejoin:round;stroke-linecap:round;stroke-width:1.25956;stroke:none;fill:currentColor;"
       d="m 10.445856,1043.8033 v -0.1488 q 0.01566,-1.4563 0.28969,-2.3175 0.28186,-0.8613 0.798603,-1.3937 0.516742,-0.5324 1.24488,-0.9708 0.469767,-0.2975 0.84558,-0.6655 0.375813,-0.368 0.595037,-0.8456 0.219224,-0.4776 0.219224,-1.057 0,-0.6968 -0.328836,-1.2057 -0.328836,-0.5089 -0.876897,-0.7829 -0.540231,-0.2819 -1.205734,-0.2819 -0.602867,0 -1.150927,0.2505 -0.548061,0.2506 -0.9082153,0.783 -0.3601542,0.5246 -0.4149603,1.3545 H 7.1731509 q 0.054806,-1.4093 0.7124789,-2.3802 0.6576729,-0.9787 1.7381355,-1.4797 1.0882917,-0.5011 2.4036377,-0.5011 1.440617,0 2.52108,0.5402 1.080462,0.5324 1.6755,1.4954 0.602866,0.9552 0.602866,2.2314 0,0.8769 -0.27403,1.5816 -0.27403,0.6968 -0.782944,1.2449 -0.501084,0.548 -1.205734,0.9708 -0.665502,0.415 -1.080462,0.8612 -0.407131,0.4463 -0.595038,1.057 -0.187906,0.6107 -0.203565,1.5111 v 0.1488 z m 1.182246,4.7603 q -0.642014,0 -1.103951,-0.4542 -0.461937,-0.4619 -0.461937,-1.1117 0,-0.642 0.461937,-1.0962 0.461937,-0.4619 1.103951,-0.4619 0.634184,0 1.096121,0.4619 0.469767,0.4542 0.469767,1.0962 0,0.4306 -0.219225,0.7907 -0.211395,0.3524 -0.563719,0.5638 -0.352325,0.2114 -0.782944,0.2114 z"
       id="text1"
       aria-label="?" />
  </g>
</svg>
