<svg xmlns="http://www.w3.org/2000/svg" height="24" viewBox="0 96 960 960" width="24">
  <!-- Toll icon (from toll_euro.svg) -->
  <path fill="currentColor" d="m 724.17474,970.87963 q -72.06439,0 -133.16241,-42.29861 -61.09799,-42.29865 -83.03061,-114.36298 h -84.59726 v -37.59877 h 77.07751 q -2.5066,-17.54611 -2.19327,-31.33232 0.31332,-13.78622 2.19327,-31.33231 h -77.07751 v -37.59879 h 84.59726 q 21.93262,-72.06433 83.03061,-114.36295 61.09802,-42.29864 133.16241,-42.29864 43.23853,0 81.15067,14.7262 37.91213,14.72618 69.24442,42.92527 l -26.94585,26.31915 q -25.69241,-22.55928 -57.65142,-34.46555 -31.95901,-11.90628 -65.79782,-11.90628 -58.90481,0 -107.4699,32.89893 -48.5651,32.89893 -68.61776,86.16387 h 176.08766 v 37.59879 H 538.68738 q -3.13322,16.91943 -3.13322,31.33231 0,14.41287 3.13322,31.33232 h 185.48736 v 37.59877 H 548.08708 q 20.05266,53.26495 68.61776,86.16388 48.56509,32.89892 107.4699,32.89892 33.21221,0 65.17122,-11.27963 31.95889,-11.27963 58.90475,-35.09219 l 26.31912,26.31914 q -27.57245,26.31915 -67.05115,41.98531 -39.47882,15.66616 -83.34394,15.66616 z" style="stroke-width:0.626646"/>
  <path style="fill:none;stroke:currentColor;stroke-width:48" d="m 474.32573,176.78776 48.32714,355.21432"/>
  <path style="fill:none;stroke:currentColor;stroke-width:48" d="M 192.13494,177.41851 106.0711,974.12928"/>
  <path style="fill:none;stroke:currentColor;stroke-width:44" d="m 336.38371,194.83516 0.13163,163.04002"/>
  <path style="fill:none;stroke:currentColor;stroke-width:44" d="m 336.38371,458.05653 0.13163,163.04002"/>
  <path style="fill:none;stroke:currentColor;stroke-width:44" d="m 336.38339,733.69748 0.12066,149.45116"/>
  <!-- Strikethrough -->
  <path fill="none" stroke="currentColor" stroke-width="90" d="M100 200L860 1000"/>
</svg>
