<?xml version="1.0" encoding="UTF-8" standalone="no"?>
<!-- Created with Inkscape (http://www.inkscape.org/) -->

<svg
   width="24"
   height="24"
   id="svg4460"
   version="1.1"
   inkscape:version="1.1.2 (08b2f3d93c, 2022-04-05)"
   sodipodi:docname="truck.svg"
   inkscape:export-filename="/home/peterk/Documents/quell/graphhopper/web/src/main/webapp/img/truck.png"
   inkscape:export-xdpi="180"
   inkscape:export-ydpi="180"
   xmlns:inkscape="http://www.inkscape.org/namespaces/inkscape"
   xmlns:sodipodi="http://sodipodi.sourceforge.net/DTD/sodipodi-0.dtd"
   xmlns="http://www.w3.org/2000/svg"
   xmlns:svg="http://www.w3.org/2000/svg"
   xmlns:rdf="http://www.w3.org/1999/02/22-rdf-syntax-ns#"
   xmlns:cc="http://creativecommons.org/ns#"
   xmlns:dc="http://purl.org/dc/elements/1.1/">
  <defs
     id="defs4462" />
  <sodipodi:namedview
     id="base"
     pagecolor="#ffffff"
     bordercolor="#666666"
     borderopacity="1.0"
     inkscape:pageopacity="0.0"
     inkscape:pageshadow="2"
     inkscape:zoom="44.435082"
     inkscape:cx="8.3605112"
     inkscape:cy="12.591402"
     inkscape:document-units="px"
     inkscape:current-layer="layer1"
     showgrid="true"
     showguides="true"
     inkscape:guide-bbox="true"
     inkscape:window-width="1920"
     inkscape:window-height="958"
     inkscape:window-x="0"
     inkscape:window-y="0"
     inkscape:window-maximized="1"
     inkscape:snap-global="false"
     inkscape:pagecheckerboard="0">
    <inkscape:grid
       type="xygrid"
       id="grid4468"
       empspacing="5"
       visible="true"
       enabled="true"
       snapvisiblegridlinesonly="true" />
    <sodipodi:guide
       orientation="1,0"
       position="0,20"
       id="guide4470" />
    <sodipodi:guide
       orientation="0,1"
       position="4,24"
       id="guide4472" />
    <sodipodi:guide
       orientation="1,0"
       position="24,13"
       id="guide4474" />
    <sodipodi:guide
       orientation="0,1"
       position="15,0"
       id="guide4476" />
    <sodipodi:guide
       orientation="1,0"
       position="23,20"
       id="guide4478" />
    <sodipodi:guide
       orientation="0,1"
       position="20,23"
       id="guide4480" />
    <sodipodi:guide
       orientation="1,0"
       position="2,5"
       id="guide4482" />
    <sodipodi:guide
       orientation="0,1"
       position="7,2"
       id="guide4484" />
  </sodipodi:namedview>
  <metadata
     id="metadata4465">
    <rdf:RDF>
      <cc:Work
         rdf:about="">
        <dc:format>image/svg+xml</dc:format>
        <dc:type
           rdf:resource="http://purl.org/dc/dcmitype/StillImage" />
        <dc:title />
      </cc:Work>
    </rdf:RDF>
  </metadata>
  <g
     inkscape:label="Layer 1"
     inkscape:groupmode="layer"
     id="layer1"
     transform="translate(0,-1028.3622)">
    <rect
       style="fill:currentColor;fill-opacity:1;stroke:none"
       id="rect3841-0"
       width="7.3367667"
       height="2.8106334"
       x="6.4433584"
       y="1042.5483"
       ry="0.68756628" />
    <path
       id="rect3841"
       style="fill:currentColor;fill-opacity:1;stroke:none"
       d="m 1.4433594,12.484375 c -0.012107,0 -0.021484,0.0094 -0.021484,0.02148 v 4.470703 c 0,0.01211 0.00938,0.02148 0.021484,0.02148 h 2.0488281 a 1.5408112,1.5408112 0 0 1 -0.00391,-0.03906 1.5410156,1.5410156 0 0 1 3.0820313,0 1.5408112,1.5408112 0 0 1 -0.00391,0.03906 h 1.9941407 c 0.012107,0 0.021484,-0.0094 0.021484,-0.02148 v -4.470703 c 0,-0.01211 -0.00938,-0.02148 -0.021484,-0.02148 z"
       transform="translate(0,1028.3622)" />
    <path
       style="fill:none;stroke:currentColor;stroke-width:1.20126px;stroke-linecap:round;stroke-linejoin:round;stroke-opacity:1"
       d="m 1.2689962,1044.7756 h 1.6944532 l 0.5092275,-1.5623 1.007107,-0.5541 2.0851643,-0.2015 1.4083588,0.1156 -0.00959,-5.6085 c -1.1943357,0.021 -6.178957,-0.012 -6.6830157,-10e-5 -0.027605,3.0299 -0.00284,5.6084 -0.011699,7.8109 z"
       id="path3839"
       inkscape:connector-curvature="0"
       sodipodi:nodetypes="cccccccccc" />
    <path
       style="fill:#ffffff;fill-opacity:1;stroke:currentColor;stroke-width:2.78317;stroke-miterlimit:4;stroke-dasharray:none;stroke-opacity:1"
       id="path3037-4-7-6-8"
       transform="matrix(0.33204356,0,0,0.33204356,23.809213,1040.1754)"
       cx="-10.915961"
       cy="15.558912"
       r="4.6403885" />
    <rect
       style="fill:currentColor;fill-opacity:1;stroke:none"
       id="rect3841-8"
       width="2.3410294"
       height="4.5141554"
       x="5.5147619"
       y="1037.1342"
       ry="0.0218533" />
    <path
       id="rect1311-6"
       style="fill:currentColor;fill-opacity:1;stroke:none;stroke-width:2.01579;stroke-opacity:1"
       d="m 10.117188,7.0703125 c -0.640379,0 -1.1542974,0.51585 -1.1542974,1.15625 v 7.6074215 c 0,0.6404 0.5139184,1.15625 1.1542974,1.15625 h 4.601562 a 1.5408111,1.5408111 0 0 1 -0.0039,-0.02734 1.5408111,1.5408111 0 0 1 1.541015,-1.539063 1.5408111,1.5408111 0 0 1 1.541016,1.539063 1.5408111,1.5408111 0 0 1 -0.0039,0.02734 h 1.488281 a 1.5408111,1.5408111 0 0 1 1.537109,-1.498046 1.5408111,1.5408111 0 0 1 1.539063,1.496093 c 0.617426,-0.02549 1.105469,-0.530293 1.105469,-1.154297 V 8.2265625 c 0,-0.6404 -0.513918,-1.15625 -1.154297,-1.15625 z"
       transform="translate(0,1028.3622)" />
    <circle
       style="fill:#ffffff;fill-opacity:0;stroke:currentColor;stroke-width:0.924134;stroke-miterlimit:4;stroke-dasharray:none;stroke-opacity:1"
       id="path3037-4-7-6-4-3"
       cx="16.389444"
       cy="1045.3221"
       r="1.5408111" />
    <circle
       style="fill:#ffffff;fill-opacity:0;stroke:currentColor;stroke-width:0.924134;stroke-miterlimit:4;stroke-dasharray:none;stroke-opacity:1"
       id="path3037-4-7-6-4-3-1"
       cx="4.9309115"
       cy="1045.322"
       r="1.5408111" />
    <circle
       style="fill:#ffffff;fill-opacity:0;stroke:currentColor;stroke-width:0.924134;stroke-miterlimit:4;stroke-dasharray:none;stroke-opacity:1"
       id="path3037-4-7-6-4-3-5"
       cx="20.857618"
       cy="1045.3221"
       r="1.5408111" />
  </g>
</svg>
