<?xml version="1.0" encoding="UTF-8" standalone="no"?>
<svg
   version="1.1"
   id="svg4460"
   height="24"
   width="24"
   sodipodi:docname="wheelchair.svg"
   inkscape:version="1.1.2 (08b2f3d93c, 2022-04-05)"
   xmlns:inkscape="http://www.inkscape.org/namespaces/inkscape"
   xmlns:sodipodi="http://sodipodi.sourceforge.net/DTD/sodipodi-0.dtd"
   xmlns:xlink="http://www.w3.org/1999/xlink"
   xmlns="http://www.w3.org/2000/svg"
   xmlns:svg="http://www.w3.org/2000/svg"
   xmlns:rdf="http://www.w3.org/1999/02/22-rdf-syntax-ns#"
   xmlns:cc="http://creativecommons.org/ns#"
   xmlns:dc="http://purl.org/dc/elements/1.1/">
  <sodipodi:namedview
     pagecolor="#ffffff"
     bordercolor="#666666"
     borderopacity="1"
     objecttolerance="10"
     gridtolerance="10"
     guidetolerance="10"
     inkscape:pageopacity="0"
     inkscape:pageshadow="2"
     inkscape:window-width="1920"
     inkscape:window-height="958"
     id="namedview19"
     showgrid="true"
     inkscape:zoom="30.23935"
     inkscape:cx="17.245741"
     inkscape:cy="11.557788"
     inkscape:window-x="0"
     inkscape:window-y="0"
     inkscape:window-maximized="1"
     inkscape:current-layer="layer1"
     inkscape:pagecheckerboard="0">
    <inkscape:grid
       type="xygrid"
       id="grid834" />
  </sodipodi:namedview>
  <defs
     id="defs4462">
    <pattern
       patternTransform="matrix(10,0,0,10,-20.859651,7.1594565)"
       id="pattern2274"
       xlink:href="#Strips1_1" />
    <pattern
       patternUnits="userSpaceOnUse"
       width="2"
       height="1"
       patternTransform="translate(0,0) scale(10,10)"
       id="Strips1_1">
      <rect
         style="fill:black;stroke:none"
         x="0"
         y="-0.5"
         width="1"
         height="2"
         id="rect1554" />
    </pattern>
  </defs>
  <metadata
     id="metadata4465">
    <rdf:RDF>
      <cc:Work
         rdf:about="">
        <dc:format>image/svg+xml</dc:format>
        <dc:type
           rdf:resource="http://purl.org/dc/dcmitype/StillImage" />
      </cc:Work>
    </rdf:RDF>
  </metadata>
  <g
     transform="translate(0,-1028.3622)"
     id="layer1">
    <rect
       style="color:#000000;display:inline;overflow:visible;visibility:visible;opacity:0.5;fill:none;stroke:none;stroke-width:2;marker:none;enable-background:accumulate"
       id="rect22282-3"
       width="24"
       height="24.000017"
       x="0"
       y="1028.3622" />
    <path
       id="rect6848-8-6-3"
       d="m 12.259486,1036.4341 c 0.696986,0.1721 1.449424,0.6237 2.304833,1.9597 0.696748,0.6678 0.806249,0.979 1.530844,1.635 0.481657,0.436 -1.338242,0.7576 -1.703498,0.2954 l -1.566387,-1.9822 c 0,0 -0.408566,1.4832 0.628129,2.4113 0.03466,0.031 0.86126,0.7609 0.86844,0.7869 l 1.30735,1.5345 1.446933,1.5182 c 0.117927,0.3072 -0.05393,1.2045 -0.696732,1.2644 -0.420429,0.042 -1.433597,-0.8151 -1.479177,-1.0575 l -2.650206,-3.2518 -2.3832701,-0.015 c 0.2077481,-2.0612 -1.4779179,-5.7564 2.3927431,-5.0989 z"
       style="color:#000000;display:inline;overflow:visible;visibility:visible;fill:currentColor;fill-opacity:1;fill-rule:nonzero;stroke:none;stroke-width:1.96937;marker:none;enable-background:accumulate"
       inkscape:connector-curvature="0"
       sodipodi:nodetypes="ccccccccccccccc" />
    <circle
       r="0"
       cx="-7.8223691"
       cy="1059.2123"
       id="path836"
       style="fill:url(#pattern2274);fill-opacity:1;stroke:#444444;stroke-width:3.78;stroke-miterlimit:9;stroke-dasharray:none;stroke-opacity:1" />
    <path
       style="fill:none;fill-opacity:1;stroke:currentColor;stroke-width:1.037;stroke-miterlimit:10;stroke-dasharray:none;stroke-opacity:1"
       d="m 11,1041.3622 c -1.8121869,0 -3.281255,1.4694 -3.281255,3.2814 0,1.8121 1.4690681,3.2812 3.281255,3.2812 1.812189,0 3.281257,-1.4691 3.281257,-3.2812 0,-0.8833 -0.349805,-1.6863 -0.91859,-2.2766 -0.596831,-0.6199 -1.434771,-1.0048 -2.362667,-1.0048 z"
       id="path2281"
       inkscape:connector-curvature="0"
       sodipodi:nodetypes="ssssss" />
    <circle
       style="stroke-width:1.33307;fill:currentColor;"
       id="path1118"
       cx="11.401512"
       cy="1034.0375"
       r="1.75" />
  </g>
</svg>
