<?xml version="1.0" encoding="UTF-8" standalone="no"?>
<svg
   version="1.1"
   viewBox="0 0 30 50"
   width="30"
   height="30"
   id="svg206"
   sodipodi:docname="logo.svg"
   inkscape:version="1.2.2 (732a01da63, 2022-12-09, custom)"
   inkscape:export-filename="../d779ddf1/logo-512.png"
   inkscape:export-xdpi="1638.4"
   inkscape:export-ydpi="1638.4"
   xmlns:inkscape="http://www.inkscape.org/namespaces/inkscape"
   xmlns:sodipodi="http://sodipodi.sourceforge.net/DTD/sodipodi-0.dtd"
   xmlns="http://www.w3.org/2000/svg"
   xmlns:svg="http://www.w3.org/2000/svg">
  <defs
     id="defs210" />
  <sodipodi:namedview
     id="namedview208"
     pagecolor="#ffffff"
     bordercolor="#666666"
     borderopacity="1.0"
     inkscape:showpageshadow="2"
     inkscape:pageopacity="0.0"
     inkscape:pagecheckerboard="0"
     inkscape:deskcolor="#d1d1d1"
     showgrid="false"
     inkscape:zoom="12.032839"
     inkscape:cx="44.087685"
     inkscape:cy="11.094639"
     inkscape:window-width="1920"
     inkscape:window-height="966"
     inkscape:window-x="0"
     inkscape:window-y="27"
     inkscape:window-maximized="1"
     inkscape:current-layer="svg206" />
  <circle
     style="fill:#ffffff;fill-opacity:0.995993;stroke:none;stroke-width:6.20066"
     id="path308"
     cx="15"
     cy="25"
     r="25" />
  <path
     d="M 22.402452,8.4897972 C 18.754535,4.4094623 12.982654,4.148978 9.0651603,6.8196393 6.2463298,8.7900619 4.2386067,11.82722 3.0418875,15.93132 c -1.1967191,4.1041 -1.1456762,7.777641 0.1528705,11.020727 3.4258694,7.038242 9.343234,7.349563 16.029961,6.082272 0,0 -2.163332,4.672908 -3.742873,7.895536 8.028826,7.899462 13.007682,1.036771 13.744395,-7.427264 C 29.963873,25.038557 27.435812,13.37783 22.401987,8.4905205 Z m -3.001407,3.9400188 c 1.782163,0.543359 2.957183,1.634924 3.525165,3.274807 0.557153,1.619322 0.468407,3.688627 -0.26627,6.208123 -0.734657,2.519496 -1.771004,4.308581 -3.109073,5.367257 -1.348918,1.038114 -2.914407,1.285476 -4.696466,0.742158 -1.78206,-0.543349 -2.943958,-1.622318 -3.485592,-3.236886 -0.557143,-1.619219 -0.466062,-3.696583 0.273193,-6.231888 0.739327,-2.535304 1.775654,-4.32439 3.109073,-5.367257 1.31792,-1.047517 2.86791,-1.299632 4.64997,-0.756335"
     id="path184"
     style="stroke-width:1.03326" />
</svg>
