<?xml version="1.0" encoding="UTF-8" standalone="no"?>
<svg
   version="1.1"
   viewBox="0 0 30 50"
   width="30"
   height="30"
   id="svg206"
   sodipodi:docname="logo.svg"
   inkscape:version="1.2.2 (732a01da63, 2022-12-09, custom)"
   inkscape:export-filename="../d779ddf1/logo-512.png"
   inkscape:export-xdpi="1638.4"
   inkscape:export-ydpi="1638.4"
   xmlns:inkscape="http://www.inkscape.org/namespaces/inkscape"
   xmlns:sodipodi="http://sodipodi.sourceforge.net/DTD/sodipodi-0.dtd"
   xmlns="http://www.w3.org/2000/svg"
   xmlns:svg="http://www.w3.org/2000/svg">
  <defs
     id="defs210" />
  <sodipodi:namedview
     id="namedview208"
     pagecolor="#ffffff"
     bordercolor="#666666"
     borderopacity="1.0"
     inkscape:showpageshadow="2"
     inkscape:pageopacity="0.0"
     inkscape:pagecheckerboard="0"
     inkscape:deskcolor="#d1d1d1"
     showgrid="false"
     inkscape:zoom="5.4538462"
     inkscape:cx="122.84908"
     inkscape:cy="14.943583"
     inkscape:window-width="1920"
     inkscape:window-height="966"
     inkscape:window-x="0"
     inkscape:window-y="27"
     inkscape:window-maximized="1"
     inkscape:current-layer="svg206" />
  <path
     d="m 21.074677,10.1 c -3.5305,-3.949 -9.1166,-4.2011 -12.9080004,-1.6164 -2.7281,1.907 -4.6712,4.8464 -5.8294,8.8184 -1.1582,3.972 -1.1088,7.5273 0.14795,10.666 3.3156,6.8117 9.0425004,7.113 15.5140004,5.8865 0,0 -2.0937,4.5225 -3.6224,7.6414 7.7704,7.6452 12.589,1.0034 13.302,-7.1882 0.71389,-8.1916 -1.7328,-19.477 -6.6046,-24.207 z m -2.9048,3.8132 c 1.7248,0.52587 2.862,1.5823 3.4117,3.1694 0.53922,1.5672 0.45333,3.5699 -0.2577,6.0083 -0.71101,2.4384 -1.714,4.1699 -3.009,5.1945 -1.3055,1.0047 -2.8206,1.2441 -4.5453,0.71827 -1.7247,-0.52586 -2.8492,-1.5701 -3.3734,-3.1327 -0.5392101,-1.5671 -0.4510601,-3.5776 0.2644,-6.0313 0.71553,-2.4537 1.7185,-4.1852 3.009,-5.1945 1.2755,-1.0138 2.7756,-1.2578 4.5003,-0.73199"
     id="path184" />
</svg>
